SplineFontDB: 3.0
FontName: SortsMillWalbaum-Italic
FullName: Sorts Mill Walbaum Italic
FamilyName: SortsMillWalbaum
Weight: Regular
Copyright: Copyright (c) 2009 Barry Schwartz\n\nPermission is hereby granted, free of charge, to any person\nobtaining a copy of this software and associated documentation\nfiles (the "Software"), to deal in the Software without\nrestriction, including without limitation the rights to use,\ncopy, modify, merge, publish, distribute, sublicense, and/or sell\ncopies of the Software, and to permit persons to whom the\nSoftware is furnished to do so, subject to the following\nconditions:\n\nThe above copyright notice and this permission notice shall be\nincluded in all copies or substantial portions of the Software.\n\nTHE SOFTWARE IS PROVIDED "AS IS", WITHOUT WARRANTY OF ANY KIND,\nEXPRESS OR IMPLIED, INCLUDING BUT NOT LIMITED TO THE WARRANTIES\nOF MERCHANTABILITY, FITNESS FOR A PARTICULAR PURPOSE AND\nNONINFRINGEMENT. IN NO EVENT SHALL THE AUTHORS OR COPYRIGHT\nHOLDERS BE LIABLE FOR ANY CLAIM, DAMAGES OR OTHER LIABILITY,\nWHETHER IN AN ACTION OF CONTRACT, TORT OR OTHERWISE, ARISING\nFROM, OUT OF OR IN CONNECTION WITH THE SOFTWARE OR THE USE OR\nOTHER DEALINGS IN THE SOFTWARE.
UComments: "The starting point for a glyph of Sorts Mill Walbaum is a glyph of Sorts Mill Walbaum Display transformed as follows, in FontForge:+AAoACgAA-Element->Style->Change Weight+AAoA-Embolden by: 36 em units+AAoA-Emboldening hints: CJK+AAoA-Counters: Retain+AAoACgAA-Then raise the letters by 18 units and skew them rightwards by 3 degrees.+AAoACgAA-CJK emboldening thickens all the lines by a certain amount, and so not only emboldens but also reduces contrast. This is what we want FontForge to do." 
Version: 001.000
ItalicAngle: -19
UnderlinePosition: -204
UnderlineWidth: 102
Ascent: 1472
Descent: 576
LayerCount: 4
Layer: 0 0 "Back"  1
Layer: 1 0 "Fore"  0
Layer: 2 0 "backup"  1
Layer: 3 0 "glyphguide"  1
NeedsXUIDChange: 1
XUID: [1021 658 797806517 12611104]

StartChar: y
Encoding: 121 121 0
Width: 1336
VWidth: 18
Flags: HMW
LayerCount: 4
Fore
SplineSet
-224 -476 m 0
 -224 -392 -157 -350 -108 -350 c 0
 -54 -350 -11 -412 -11 -479 c 0
 -11 -500 -15 -522 -24 -542 c 1
 -11 -547 3 -550 20 -550 c 0
 222 -550 454 -182 465 31 c 0
 466 48 466 68 466 89 c 0
 466 316 416 762 310 762 c 0
 221 762 130 470 130 470 c 1
 122 452 112 434 88 434 c 1
 52 438 42 458 42 472 c 0
 42 487 157 916 407 916 c 0
 659 916 650 537 668 307 c 1
 811 504 890 636 1059 834 c 0
 1105 888 1144 935 1218 935 c 0
 1307 935 1335 873 1335 821 c 0
 1335 743 1270 685 1216 685 c 0
 1164 685 1142 721 1106 754 c 1
 657 211 594 -19 560 -86 c 0
 353 -500 204 -629 -19 -629 c 0
 -194 -629 -224 -541 -224 -476 c 0
EndSplineSet
EndChar

StartChar: x
Encoding: 120 120 4
Width: 1308
VWidth: 18
Flags: HMW
LayerCount: 4
Fore
SplineSet
1367 781 m 0
 1367 678 1327 642 1268 642 c 0
 1204 642 1180 701 1171 808 c 1
 1080 782 993 714 956 657 c 0
 846 489 721 171 721 121 c 0
 721 76 771 65 783 65 c 0
 937 65 1105 228 1135 228 c 0
 1149 228 1180 213 1180 187 c 0
 1180 138 916 -43 721 -43 c 0
 562 -43 521 57 512 115 c 1
 455 66 326 -31 209 -31 c 0
 123 -31 50 26 50 105 c 0
 50 178 101 241 179 241 c 0
 221 241 264 205 264 140 c 0
 264 118 258 92 246 63 c 1
 305 75 404 121 513 240 c 0
 563 295 724 603 724 751 c 0
 724 805 702 821 668 821 c 0
 508 821 390 668 371 657 c 0
 365 653 358 652 352 652 c 0
 332 652 315 668 316 687 c 0
 318 732 495 914 713 914 c 0
 855 914 907 810 925 756 c 1
 1053 873 1175 913 1242 913 c 0
 1311 913 1367 879 1367 781 c 0
EndSplineSet
EndChar

StartChar: z
Encoding: 122 122 5
Width: 1117
VWidth: 18
Flags: HMW
LayerCount: 4
Fore
SplineSet
1085 212 m 0
 1085 84 929 -31 677 -31 c 0
 466 -31 392 64 274 64 c 1
 165 61 138 -31 94 -31 c 0
 83 -31 49 -16 49 13 c 0
 49 26 56 43 75 62 c 1
 782 707 l 1
 349 707 l 2
 338 707 343 706 341 706 c 1
 340 704 341 708 333 689 c 2
 296 602 l 2
 278 557 267 524 236 524 c 1
 207 527 187 542 187 562 c 0
 187 566 188 569 189 573 c 0
 192 586 190 576 190 576 c 1
 194 589 207 615 217 641 c 2
 308 865 l 1
 323 898 335 908 367 908 c 0
 576 908 786 908 995 908 c 0
 1029 908 1031 898 1043 864 c 0
 1045 860 1046 857 1046 853 c 0
 1046 832 1020 811 992 784 c 2
 361 211 l 1
 385 216 419 222 450 222 c 0
 626 222 697 78 798 78 c 1
 866 80 902 99 920 113 c 1
 888 144 874 177 874 209 c 0
 874 269 923 320 982 320 c 0
 1016 320 1085 291 1085 212 c 0
EndSplineSet
EndChar

StartChar: w
Encoding: 119 119 6
Width: 1604
VWidth: 18
Flags: HMW
LayerCount: 4
Fore
SplineSet
1631 741 m 0
 1631 417 1297 -23 871 -23 c 0
 696 -23 661 57 661 139 c 0
 661 145 661 150 661 156 c 1
 587 87 436 -32 267 -32 c 0
 125 -32 85 43 85 136 c 0
 85 227 124 334 146 403 c 2
 251 741 l 2
 258 768 267 793 274 818 c 1
 114 818 l 1
 86 822 74 840 74 859 c 0
 74 883 93 908 121 908 c 2
 460 908 l 1
 462 908 l 2
 475 908 504 907 502 875 c 0
 499 821 262 224 262 121 c 0
 262 85 289 62 334 62 c 0
 404 62 521 115 648 270 c 0
 694 326 735 406 776 505 c 2
 910 827 l 2
 930 875 936 905 1000 905 c 2
 1070 905 l 1
 1074 905 l 2
 1097 905 1129 904 1129 867 c 0
 1129 857 1128 839 1117 815 c 2
 1027 599 l 1
 899 285 854 177 854 118 c 0
 854 84 870 64 925 64 c 0
 1193 64 1508 389 1508 601 c 0
 1508 679 1355 697 1355 792 c 0
 1355 858 1409 902 1476 902 c 0
 1549 902 1631 847 1631 741 c 0
EndSplineSet
EndChar

StartChar: v
Encoding: 118 118 7
Width: 1231
VWidth: 18
Flags: HMW
LayerCount: 4
Fore
SplineSet
946 790 m 0
 946 867 1012 905 1063 905 c 0
 1150 905 1227 814 1227 709 c 0
 1227 592 1116 171 707 20 c 0
 619 -12 529 -30 449 -30 c 0
 325 -30 236 17 236 130 c 0
 236 222 443 694 447 763 c 0
 448 783 442 798 437 798 c 0
 344 798 231 684 176 615 c 0
 165 601 152 589 137 589 c 0
 121 589 107 604 107 621 c 0
 107 672 317 920 553 920 c 0
 620 920 694 898 694 823 c 0
 694 756 446 177 446 118 c 0
 446 84 461 64 518 64 c 0
 781 64 1086 360 1086 566 c 0
 1086 688 946 675 946 790 c 0
EndSplineSet
EndChar

StartChar: u
Encoding: 117 117 8
Width: 1312
VWidth: 18
Flags: HMW
LayerCount: 4
Fore
SplineSet
1233 248 m 1
 1231 201 1036 -30 822 -30 c 0
 740 -30 692 6 692 60 c 0
 692 88 699 109 728 191 c 1
 587 56 402 -28 268 -28 c 0
 142 -28 104 39 104 128 c 0
 104 215 140 321 166 403 c 2
 274 741 l 1
 281 768 290 793 297 818 c 1
 134 818 l 1
 124 820 97 819 97 857 c 0
 97 895 122 908 139 908 c 2
 463 908 l 1
 464 908 l 2
 476 908 515 907 515 873 c 0
 515 820 282 194 282 121 c 0
 282 94 299 76 356 76 c 0
 514 76 682 246 739 333 c 1
 849 509 961 861 982 885 c 0
 996 901 1016 908 1047 908 c 2
 1116 908 l 2
 1149 908 1172 906 1172 868 c 0
 1172 866 1172 865 1172 863 c 0
 1161 787 924 244 917 112 c 0
 916 89 919 83 927 83 c 0
 947 83 1030 117 1127 226 c 0
 1167 271 1170 288 1193 288 c 1
 1226 281 1233 248 1233 248 c 1
EndSplineSet
EndChar

StartChar: t
Encoding: 116 116 9
Width: 751
VWidth: 18
Flags: HMW
LayerCount: 4
Fore
SplineSet
624 275 m 1
 651 270 661 254 661 238 c 0
 661 225 655 213 648 207 c 0
 544 113 395 -18 227 -18 c 0
 115 -18 81 31 81 97 c 0
 81 163 115 246 139 312 c 2
 325 818 l 1
 202 818 186 818 171 818 c 0
 156 818 136 820 136 848 c 0
 136 912 172 907 205 908 c 1
 359 908 l 1
 458 1165 l 1
 478 1210 505 1210 540 1210 c 2
 609 1210 l 2
 628 1210 661 1209 661 1178 c 0
 661 1171 659 1163 655 1153 c 2
 560 908 l 1
 612 908 664 908 716 908 c 0
 731 908 758 907 758 877 c 0
 758 820 725 818 707 818 c 2
 526 818 l 1
 440 583 l 1
 359 357 281 171 281 101 c 0
 281 82 287 72 300 72 c 0
 346 72 457 140 600 265 c 0
 602 267 609 275 624 275 c 1
EndSplineSet
EndChar

StartChar: a
Encoding: 97 97 10
Width: 1258
VWidth: 18
Flags: HMW
LayerCount: 4
Fore
SplineSet
1179 892 m 0
 1179 826 906 286 906 138 c 0
 906 114 913 100 929 100 c 0
 1033 100 1156 283 1169 295 c 0
 1177 303 1186 306 1194 306 c 0
 1212 306 1228 291 1228 274 c 0
 1228 239 1054 -18 804 -18 c 0
 721 -18 697 27 697 88 c 0
 697 107 699 128 703 149 c 1
 631 82 485 -30 312 -30 c 0
 130 -30 75 109 75 248 c 0
 75 600 442 926 697 926 c 0
 860 926 907 812 921 733 c 1
 1000 903 991 926 1065 926 c 2
 1126 926 l 2
 1144 926 1179 925 1179 892 c 0
720 850 m 0
 525 850 263 358 263 131 c 0
 263 62 294 38 342 38 c 0
 437 38 597 133 696 252 c 0
 803 381 848 619 848 671 c 0
 848 752 805 850 720 850 c 0
EndSplineSet
EndChar

StartChar: b
Encoding: 98 98 11
Width: 1185
VWidth: 18
Flags: HMW
LayerCount: 4
Back
SplineSet
94 136 m 4
 94 249 192 418 550 1431 c 5
 363 1431 l 6
 330 1431 326 1450 327 1470 c 4
 330 1519 363 1521 377 1521 c 6
 719 1521 l 6
 754 1521 765 1509 765 1491 c 4
 765 1475 756 1455 748 1435 c 6
 541 852 l 5
 611 896 750 970 885 970 c 4
 1049 970 1145 833 1145 681 c 4
 1145 322 764 -48 419 -48 c 4
 281 -48 94 7 94 136 c 4
496 693 m 4
 447 635 296 258 296 155 c 4
 296 55 339 35 406 35 c 4
 659 35 811 364 849 443 c 4
 902 554 952 677 952 763 c 4
 952 831 921 876 836 876 c 4
 737 876 595 808 496 693 c 4
EndSplineSet
Fore
SplineSet
870 929 m 0
 1018 929 1127 847 1127 664 c 0
 1127 378 845 -33 406 -33 c 0
 328 -33 101 17 101 123 c 0
 101 162 117 203 137 261 c 2
 546 1431 l 1
 326 1426 l 2
 301 1426 298 1454 298 1476 c 0
 298 1498 301 1526 326 1526 c 2
 733 1521 l 2
 754 1521 780 1521 780 1491 c 0
 779 1446 472 714 472 714 c 1
 510 743 635 929 870 929 c 0
804 846 m 0
 501 846 350 334 323 256 c 0
 307 209 300 169 300 137 c 0
 300 71 331 36 395 36 c 0
 672 36 917 480 917 711 c 0
 917 813 866 846 804 846 c 0
EndSplineSet
Layer: 3
SplineSet
88 -415.5 m 5
 952 2046.5 l 5
-102 -415.5 m 5
 762 2046.5 l 5
EndSplineSet
EndChar

StartChar: c
Encoding: 99 99 12
Width: 984
VWidth: 18
Flags: HMW
LayerCount: 4
Fore
SplineSet
787 699 m 0
 787 739 795 766 795 784 c 0
 795 834 754 868 685 868 c 0
 567 867 505 808 439 723 c 0
 330 582 264 359 264 228 c 0
 264 84 322 42 417 42 c 1
 643 45 738 225 782 225 c 1
 811 221 821 200 821 183 c 0
 821 127 592 -47 410 -47 c 0
 158 -47 56 103 56 290 c 0
 56 582 303 955 673 955 c 0
 836 955 959 867 959 735 c 0
 959 680 938 598 866 598 c 0
 801 598 787 650 787 699 c 0
EndSplineSet
EndChar

StartChar: d
Encoding: 100 100 13
Width: 1253
VWidth: -2
Flags: HMW
LayerCount: 4
Fore
SplineSet
1226 265 m 0
 1226 227 1019 -39 797 -39 c 0
 697 -39 668 28 668 92 c 0
 668 108 669 123 672 137 c 1
 562 34 436 -22 335 -22 c 0
 167 -22 55 98 55 264 c 0
 55 552 308 978 652 978 c 0
 770 978 851 910 892 829 c 1
 1101 1431 l 1
 887 1431 l 2
 854 1431 841 1449 841 1469 c 0
 841 1494 861 1521 889 1521 c 2
 1257 1521 l 2
 1274 1521 1302 1520 1302 1485 c 0
 1302 1419 868 251 868 124 c 0
 868 95 875 71 902 71 c 0
 996 71 1146 281 1160 291 c 0
 1168 297 1179 301 1190 301 c 1
 1215 296 1226 280 1226 265 c 0
672 884 m 0
 506 884 382 632 331 519 c 1
 251 336 239 262 239 206 c 0
 239 133 263 67 354 67 c 0
 486 67 683 205 733 361 c 0
 742 392 846 674 846 712 c 0
 846 792 769 884 672 884 c 0
EndSplineSet
EndChar

StartChar: e
Encoding: 101 101 14
Width: 910
VWidth: 18
Flags: HMWO
LayerCount: 4
Back
SplineSet
70 208 m 4
 70 568 422 927 759 927 c 4
 871 927 925 863 925 787 c 4
 925 549 483 453 316 394 c 5
 298 359 277 289 277 223 c 4
 277 145 307 73 404 73 c 4
 581 73 781 276 782 277 c 4
 791 284 799 287 809 287 c 4
 834 287 848 267 847 248 c 4
 844 194 588 -33 323 -33 c 4
 180 -33 70 15 70 208 c 4
709 828 m 4
 544 828 402 595 353 496 c 5
 511 542 774 657 774 765 c 4
 774 789 761 828 709 828 c 4
EndSplineSet
Fore
SplineSet
740 928 m 0
 868 928 935 863 935 787 c 0
 935 549 483 453 316 394 c 1
 298 359 277 289 277 223 c 0
 277 145 307 73 404 73 c 0
 548 73 680 167 765 266 c 0
 779 283 787 295 802 295 c 0
 821 295 848 268 848 253 c 0
 848 207 629 -33 313 -33 c 0
 132 -33 56 82 56 222 c 0
 56 372 144 563 282 708 c 0
 479 915 636 928 740 928 c 0
709 838 m 0
 544 838 386 594 345 476 c 1
 503 522 784 657 784 765 c 0
 784 789 772 838 709 838 c 0
EndSplineSet
Layer: 2
SplineSet
50 250 m 0
 50 508 318 933 761 933 c 0
 871 933 925 865 925 788 c 0
 925 543 474 453 307 394 c 1
 293 352 282 296 282 242 c 0
 282 151 314 66 414 66 c 0
 515 66 648 150 708 217 c 4
 746 260 764 297 792 297 c 4
 811 297 838 268 838 253 c 4
 838 222 802 194 772 159 c 4
 675 46 534 -34 367 -34 c 0
 161 -34 50 75 50 250 c 0
331 486 m 1
 668.115588556 577.386755934 757 720.4 757 779 c 0
 757 822 723 849 676 849 c 0
 573 849 408 714 331 486 c 1
70 208 m 0
 70 568 422 927 759 927 c 0
 871 927 925 863 925 787 c 0
 925 549 483 453 316 394 c 1
 298 359 277 289 277 223 c 0
 277 145 307 73 404 73 c 0
 581 73 781 276 782 277 c 4
 791 284 799 287 809 287 c 4
 834 287 848 267 847 248 c 4
 844 194 588 -33 323 -33 c 0
 180 -33 70 15 70 208 c 0
709 828 m 0
 544 828 402 595 353 496 c 1
 511 542 774 657 774 765 c 0
 774 789 761 828 709 828 c 0
EndSplineSet
EndChar

StartChar: f
Encoding: 102 102 15
Width: 952
VWidth: 18
Flags: HMW
LayerCount: 4
Fore
SplineSet
-256 -376 m 0
 -256 -398 -262 -453 -289 -486 c 1
 -272 -493 -247 -498 -216 -498 c 0
 111 -498 275 257 402 818 c 1
 177 818 l 2
 176 818 174 818 172 818 c 0
 156 818 134 820 134 854 c 0
 134 894 153 908 182 908 c 2
 426 908 l 1
 453 1012 614 1592 1003 1592 c 0
 1157 1592 1206 1482 1206 1422 c 0
 1206 1361 1157 1310 1113 1310 c 0
 1036 1310 1025 1394 1025 1460 c 0
 1025 1478 1026 1495 1026 1508 c 1
 730 1494 704 1140 648 908 c 1
 883 908 l 2
 899 907 926 908 926 873 c 0
 926 849 916 818 878 818 c 2
 627 818 l 1
 439 157 361 -63 201 -289 c 0
 187 -309 21 -577 -225 -577 c 0
 -299 -577 -471 -543 -471 -410 c 0
 -471 -326 -418 -264 -354 -264 c 0
 -303 -264 -256 -305 -256 -376 c 0
EndSplineSet
EndChar

StartChar: g
Encoding: 103 103 16
Width: 1230
VWidth: 18
Flags: HMW
LayerCount: 4
Fore
SplineSet
768 864 m 0
 602 864 478 662 478 518 c 0
 478 422 532 372 590 372 c 0
 744 372 867 592 867 738 c 0
 867 809 838 864 768 864 c 0
391 -509 m 0
 623 -509 877 -369 877 -172 c 0
 877 -128 846 -49 677 -49 c 0
 539 -49 358 -55 254 -70 c 0
 138 -87 67 -183 67 -281 c 0
 67 -394 161 -509 391 -509 c 0
1149 818 m 0
 1122 818 1052 774 1052 703 c 0
 1052 521 859 297 584 297 c 0
 452 297 400 371 353 371 c 0
 236 371 189 317 189 263 c 0
 189 209 236 155 304 155 c 0
 428 155 552 173 658 173 c 0
 933 173 1018 24 1018 -75 c 0
 1018 -393 710 -595 339 -595 c 0
 42 -595 -72 -457 -72 -313 c 0
 -72 -200 -13 -88 167 -30 c 1
 109 6 63 75 63 141 c 0
 63 193 91 428 310 449 c 1
 300 469 288 501 288 539 c 0
 288 765 543 941 781 941 c 0
 877 941 984 895 1025 811 c 1
 1063 850 1146 927 1223 927 c 0
 1303 927 1336 871 1336 816 c 0
 1336 764 1305 713 1254 713 c 0
 1150 713 1209 818 1149 818 c 0
EndSplineSet
Layer: 2
SplineSet
763 852 m 4
 605 852 487 660 487 523 c 4
 487 432 539 384 594 384 c 4
 741 384 858 593 858 732 c 4
 858 800 830 852 763 852 c 4
391 -509 m 4
 623 -509 877 -369 877 -172 c 4
 877 -128 861 -29 717 -29 c 4
 579 -29 358 -55 254 -70 c 4
 138 -87 67 -183 67 -281 c 4
 67 -394 161 -509 391 -509 c 4
288 539 m 4
 288 765 543 941 781 941 c 4
 877 941 984 895 1025 811 c 5
 1063 850 1146 927 1223 927 c 4
 1303 927 1336 871 1336 816 c 4
 1336 764 1305 713 1254 713 c 5
 1170 719 1188 816 1160 816 c 6
 1158 816 l 5
 1130 810 1062 749 1057 703 c 4
 1033 479 830 297 584 297 c 4
 452 297 400 371 353 371 c 4
 236 371 189 317 189 263 c 4
 189 209 236 155 304 155 c 4
 446 155 525 197 743 197 c 4
 930 197 1018 92 1018 -65 c 4
 1018 -383 710 -595 339 -595 c 4
 42 -595 -72 -457 -72 -313 c 4
 -72 -200 -13 -88 167 -30 c 5
 109 6 63 75 63 141 c 4
 63 193 91 428 310 449 c 5
 300 469 288 501 288 539 c 4
EndSplineSet
EndChar

StartChar: h
Encoding: 104 104 17
Width: 1253
VWidth: 18
Flags: HMW
LayerCount: 4
Fore
SplineSet
934 90 m 0
 1046.71730811 90 1148.8192836 297 1189 297 c 0
 1208 297 1235 268 1235 253 c 0
 1235 222 1199 194 1169 159 c 0
 1064 37 944 -20 838 -20 c 0
 754 -20 707 20 707 95 c 0
 707 127 716 167 734 212 c 2
 846 477 l 2
 908 625 942 711 942 758 c 0
 942 797 922 822 865 822 c 0
 661 822 453 578 396 418 c 2
 275 76 l 2
 269 60 258 0 202 0 c 2
 102 0 l 2
 94 0 63 0 63 36 c 0
 63 66 100 161 114 200 c 2
 546 1431 l 1
 326 1426 l 2
 301 1426 298 1454 298 1476 c 0
 298 1498 301 1526 326 1526 c 2
 733 1521 l 2
 754 1521 780 1521 780 1491 c 0
 780 1466 622 1076 486 711 c 1
 570 792 733 919 913 919 c 0
 1049 919 1130 842 1130 726 c 0
 1130 578 908 192 908 120 c 0
 908 103 914 90 934 90 c 0
EndSplineSet
Layer: 2
SplineSet
53 36 m 0
 53 92 156 304 559 1431 c 1
 347 1431 l 2
 314 1431 310 1450 311 1470 c 0
 314 1519 347 1521 361 1521 c 2
 723 1521 l 2
 759 1521 771 1511 771 1492 c 0
 771 1478 764 1459 754 1435 c 2
 486 711 l 1
 570 792 733 919 913 919 c 0
 1049 919 1145 842 1145 726 c 0
 1145 577 910 160 906 84 c 0
 905 71 911 63 936 63 c 0
 1027 63 1144 192 1169 223 c 0
 1182 239 1189 240 1202 240 c 0
 1220 240 1242 222 1242 200 c 0
 1242 158 1085 -40 831 -40 c 0
 755 -40 674 -16 674 57 c 0
 674 144 933 655 933 754 c 0
 933 807 908 822 869 822 c 0
 630 822 427 531 391 430 c 0
 344 297 268 102 247 48 c 0
 234 17 210 0 187 0 c 2
 102 0 l 2
 94 0 53 0 53 36 c 0
EndSplineSet
Layer: 3
SplineSet
88 -415.5 m 5
 952 2046.5 l 5
-102 -415.5 m 5
 762 2046.5 l 5
EndSplineSet
EndChar

StartChar: i
Encoding: 105 105 18
Width: 639
VWidth: 18
Flags: HMW
LayerCount: 4
Fore
SplineSet
81 71 m 0
 81 122 107 179 333 818 c 1
 164 818 l 1
 136 822 124 840 124 859 c 0
 124 883 143 908 171 908 c 2
 502 908 l 1
 504 908 l 2
 523 908 546 907 544 868 c 1
 532 794 291 208 285 96 c 0
 284 79 289 76 303 76 c 0
 332 76 415 107 524 243 c 0
 543 267 555 269 563 269 c 1
 594 263 602 245 601 231 c 0
 598 182 405 -36 197 -36 c 0
 123 -36 81 -2 81 71 c 0
446 1344 m 0
 446 1411 503 1467 570 1467 c 0
 633 1467 682 1417 682 1356 c 0
 682 1289 625 1233 558 1233 c 0
 495 1233 446 1283 446 1344 c 0
EndSplineSet
EndChar

StartChar: j
Encoding: 106 106 19
Width: 675
VWidth: 18
Flags: HMW
LayerCount: 4
Fore
SplineSet
552 1344 m 0
 552 1411 609 1467 676 1467 c 0
 739 1467 788 1417 788 1356 c 0
 788 1289 731 1233 664 1233 c 0
 601 1233 552 1283 552 1344 c 0
251 818 m 1
 221 822 208 841 208 860 c 0
 208 884 228 908 258 908 c 2
 608 908 l 2
 608 908 609 908 610 908 c 0
 619 908 651 906 650 879 c 0
 649 859 388 145 259 -197 c 0
 163 -453 160 -509 -54 -576 c 1
 -130 -602 -205 -612 -242 -612 c 0
 -282 -612 -296 -592 -296 -572 c 0
 -296 -467 -102 -597 -12 -372 c 1
 80 -152 42 -233 140 31 c 2
 433 818 l 1
 251 818 l 1
EndSplineSet
EndChar

StartChar: k
Encoding: 107 107 20
Width: 1238
VWidth: 18
Flags: HMW
LayerCount: 4
Back
SplineSet
416 516 m 1
 501.4609375 597.078125 758.982518598 929 1007 929 c 0
 1109 929 1149 873 1149 815 c 0
 1149 753 1103 688 1036 688 c 0
 950 688 915 776 903 816 c 1
 795 779 675 700 584 597 c 1
 629 607 681 615 731 615 c 0
 873 615 900 546 900 494 c 0
 900 355 801 161 801 98 c 0
 801 80 808 71 825 71 c 0
 915 71 1066 207 1066 207 c 2
 1070 209 1076 211 1082 211 c 0
 1102 211 1123 192 1123 172 c 0
 1123 137 957 -24 745 -24 c 0
 641 -24 608 24 608 90 c 0
 608 200 698 364 698 453 c 0
 698 492 681 516 632 516 c 0
 563 516 496 479 456 450 c 0
 358 380 342 314 251 48 c 0
 240.240122979 16.5480517853 214 0 191 0 c 2
 78 0 l 2
 45 0 59.3583984375 44.470703125 62 52 c 2
 546 1431 l 1
 331 1426 l 2
 306 1426 298 1454 298 1476 c 0
 298 1498 306 1526 331 1526 c 2
 728 1521 l 2
 749 1521 775 1521 775 1491 c 0
 774.293993252 1459.23202254 570.287855791 946.735662522 416 516 c 1
EndSplineSet
Fore
SplineSet
892 480 m 0
 892 379 801 179 801 121 c 0
 801 101 810 90 834 90 c 0
 947 90 1048 297 1089 297 c 0
 1108 297 1135 268 1135 253 c 0
 1135 222 1099 194 1069 159 c 0
 964 37 858 -20 738 -20 c 0
 662 -20 609 16 609 84 c 0
 609 194 698 364 698 453 c 0
 698 499 669 517 629 517 c 0
 577 517 507 487 456 450 c 0
 369 388 350 343 251 48 c 0
 240 17 214 0 191 0 c 2
 78 0 l 2
 61 0 57 12 57 24 c 0
 57 36 61 48 62 52 c 2
 531 1389 l 2
 535 1402 540 1411 540 1418 c 0
 540 1426 533 1430 510 1430 c 0
 508 1430 506 1430 504 1430 c 2
 325 1426 l 2
 301 1426 298 1454 298 1476 c 0
 298 1498 301 1526 326 1526 c 2
 733 1521 l 2
 754 1521 780 1521 780 1491 c 0
 779 1459 569 947 415 516 c 1
 568 667 724 929 1007 929 c 0
 1110 929 1148 878 1148 822 c 0
 1148 750 1097 688 1036 688 c 0
 940 688 934 762 934 805 c 2
 934 817 l 2
 934 823 933 825 924 825 c 0
 828 825 651 686 548 566 c 1
 636 598 696 612 749 612 c 0
 800 612 892 586 892 480 c 0
EndSplineSet
Layer: 3
SplineSet
88 -416 m 5
 952 2046 l 5
-102 -416 m 5
 762 2046 l 5
EndSplineSet
EndChar

StartChar: l
Encoding: 108 108 21
Width: 764
VWidth: 18
Flags: HMW
LayerCount: 4
Back
SplineSet
624 294 m 4
 633.497830631 294 644 289 652.467025502 281.000000985 c 4
 659.057546344 274.773001877 663 265.591297932 663 255 c 4
 663 220 623 184 608 166 c 4
 534 82 390 -22 231 -22 c 4
 149 -22 89 12 89 84 c 4
 89 120 100 161 114 200 c 6
 546 1431 l 5
 331 1426 l 6
 306 1426 298 1454 298 1476 c 4
 298 1498 306 1526 331 1526 c 6
 728 1521 l 6
 749 1521 775 1521 775 1491 c 4
 774 1446 291 237 291 130 c 4
 291 102 305 90 338 90 c 4
 417 90 492 170 548 230 c 4
 556 238 588 294 624 294 c 4
EndSplineSet
Fore
SplineSet
338 90 m 0
 470 90 586 297 622 297 c 0
 641 297 668 268 668 253 c 0
 668 222 632 194 602 159 c 0
 534 80 386 -22 231 -22 c 0
 149 -22 89 12 89 84 c 0
 89 120 100 161 114 200 c 2
 531 1389 l 2
 535 1402 540 1411 540 1418 c 0
 540 1426 533 1430 510 1430 c 0
 508 1430 506 1430 504 1430 c 2
 325 1426 l 2
 301 1426 298 1454 298 1476 c 0
 298 1498 301 1526 326 1526 c 2
 733 1521 l 2
 754 1521 780 1521 780 1491 c 0
 779 1446 291 237 291 130 c 0
 291 102 305 90 338 90 c 0
EndSplineSet
Layer: 3
SplineSet
88 -415.5 m 1
 952 2046.5 l 1
-102 -415.5 m 1
 762 2046.5 l 1
EndSplineSet
EndChar

StartChar: m
Encoding: 109 109 22
Width: 1883
VWidth: 18
Flags: HMW
LayerCount: 4
Fore
SplineSet
1740 780 m 0
 1740 615 1492 208 1492 106 c 0
 1492 91 1497 85 1518 85 c 0
 1566 85 1665 141 1749 271 c 0
 1763 293 1780 302 1794 302 c 0
 1814 302 1831 285 1831 267 c 0
 1831 240 1710 -10 1427 -10 c 0
 1354 -10 1279 14 1279 92 c 0
 1279 199 1547 682 1547 769 c 0
 1547 806 1533 820 1498 820 c 0
 1423 820 1182 725 1041 456 c 0
 860 112 880 0 786 0 c 2
 702 0 l 2
 661 0 654 25 654 42 c 0
 654 101 948 678 948 788 c 0
 948 816 937 831 894 831 c 0
 722 831 513 611 444 482 c 0
 346 299 251 42 235 22 c 0
 230 15 216 0 185 0 c 2
 107 0 l 1
 93 1 55 0 55 39 c 0
 55 76 67 90 360 818 c 1
 192 818 l 1
 164 822 152 840 152 859 c 0
 152 883 171 908 199 908 c 2
 525 908 l 2
 555 908 568 900 568 879 c 0
 568 847 539 787 493 679 c 1
 586 776 753 920 926 920 c 0
 1076 920 1124 855 1124 771 c 0
 1124 747 1120 721 1113 695 c 1
 1201 775 1387 918 1593 918 c 0
 1709 918 1740 853 1740 780 c 0
EndSplineSet
EndChar

StartChar: n
Encoding: 110 110 23
Width: 1295
VWidth: 18
Flags: HMW
LayerCount: 4
Fore
SplineSet
711 101 m 0
 711 201 938 682 938 772 c 0
 938 812 913 845 865 845 c 0
 771 845 631 749 538 647 c 0
 398 493 282 54 261 25 c 0
 244 1 219 0 209 0 c 2
 128 0 l 2
 127 0 126 0 125 -0 c 0
 112 0 75 1 75 37 c 0
 75 79 269 599 351 818 c 1
 192 818 l 1
 164 822 152 840 152 859 c 0
 152 883 171 908 199 908 c 2
 513 908 l 2
 545 908 558 900 558 879 c 0
 558 854 539 809 509 736 c 1
 592 816 747 933 944 933 c 0
 1109 933 1149 856 1149 776 c 0
 1149 654 928 189 924 114 c 0
 923 99 930 85 959 85 c 0
 1048 85 1154 229 1173 250 c 0
 1178 255 1186 263 1199 263 c 1
 1222 259 1232 244 1232 230 c 0
 1232 202 1085 -20 872 -20 c 0
 801 -20 711 4 711 101 c 0
EndSplineSet
EndChar

StartChar: o
Encoding: 111 111 24
Width: 1106
VWidth: 18
Flags: HMW
LayerCount: 4
Fore
SplineSet
869 698 m 0
 869 825 791 857 695 857 c 0
 436 857 284 349 284 211 c 0
 284 108 332 48 446 48 c 0
 744 48 869 502 869 698 c 0
76 311 m 0
 76 495 248 933 741 933 c 0
 942 933 1069 803 1069 611 c 0
 1069 275 754 -33 445 -33 c 0
 235 -33 76 103 76 311 c 0
EndSplineSet
Layer: 2
SplineSet
869 698 m 4
 869 825 791 857 695 857 c 4
 436 857 284 349 284 211 c 4
 284 108 332 48 446 48 c 4
 744 48 869 502 869 698 c 4
76 311 m 4
 76 495 248 933 741 933 c 4
 942 933 1069 803 1069 611 c 4
 1069 275 754 -33 445 -33 c 4
 235 -33 76 103 76 311 c 4
422 50 m 0
 707 50 878 472 878 732 c 0
 878 852 813 884 699 884 c 0
 432 884 275 360 275 218 c 0
 275 141 304 50 422 50 c 0
56 321 m 0
 56 511 235 962 748 962 c 0
 957 962 1089 828 1089 630 c 0
 1089 284 762 -34 440 -34 c 0
 221 -34 56 107 56 321 c 0
EndSplineSet
EndChar

StartChar: p
Encoding: 112 112 25
Width: 794
VWidth: 18
Flags: HMW
LayerCount: 4
Fore
SplineSet
343 633 m 0
 343 726 420 794 506 794 c 0
 581 794 634 730 634 657 c 0
 634 573 565 499 481 499 c 0
 405 499 343 557 343 633 c 0
EndSplineSet
EndChar

StartChar: q
Encoding: 113 113 26
Width: 794
VWidth: 18
Flags: HMW
LayerCount: 4
Fore
SplineSet
343 633 m 0
 343 726 420 794 506 794 c 0
 581 794 634 730 634 657 c 0
 634 573 565 499 481 499 c 0
 405 499 343 557 343 633 c 0
EndSplineSet
EndChar

StartChar: r
Encoding: 114 114 27
Width: 1018
VWidth: 18
Flags: HMW
LayerCount: 4
Fore
SplineSet
187 908 m 2
 566 908 l 2
 602 907 616 903 616 886 c 0
 616 863 590 818 552 730 c 1
 651 806 819 911 925 911 c 0
 999 911 1031 855 1031 794 c 0
 1031 718 981 632 901 632 c 0
 853 632 812 667 812 732 c 0
 812 752 816 771 818 781 c 1
 733 741 525 632 412 402 c 0
 226 23 277 0 170 0 c 2
 127 0 l 2
 73 0 55 8 55 32 c 0
 55 47 62 68 72 97 c 1
 367 818 l 1
 170 818 l 1
 139 821 128 839 128 857 c 0
 128 907 171 908 187 908 c 2
EndSplineSet
EndChar

StartChar: s
Encoding: 115 115 28
Width: 853
VWidth: 18
Flags: HMW
LayerCount: 4
Fore
SplineSet
33 201 m 0
 33 282 95 326 150 326 c 0
 192 326 253 304 253 179 c 0
 253 163 252 153 252 141 c 0
 252 98 265 60 353 60 c 0
 435 60 553 109 553 191 c 0
 553 339 244 425 244 627 c 0
 244 725 343 935 587 935 c 0
 722 935 838 861 838 751 c 0
 838 696 807 653 762 653 c 0
 621 653 700 842 552 842 c 0
 482 842 413 809 413 764 c 0
 413 671 740 512 740 300 c 0
 740 157 595 -38 336 -38 c 0
 143 -38 33 86 33 201 c 0
EndSplineSet
EndChar

